PathFileType	4	(X/Y/Z)	/Users/niels/Desktop/University/Third Semester/Perception and Action/Exam/Gymnastics Motion Tracking/Code for Gym Tracking/Analyzed Data/Webcam_Backflip/id8_1_baseline_Sports2D/id8_1_baseline_Sports2D_px_person00.trc
DataRate	CameraRate	NumFrames	NumMarkers	Units	OrigDataRate	OrigDataStartFrame	OrigNumFrames
29.8	29.8	10	22	m	29.8	37	150
Frame#	Time	Hip			RHip			RKnee			RAnkle			RBigToe			RSmallToe			RHeel			LHip			LKnee			LAnkle			LBigToe			LSmallToe			LHeel			Neck			Head			Nose			RShoulder			RElbow			RWrist			LShoulder			LElbow			LWrist		
		X1	Y1	Z1	X2	Y2	Z2	X3	Y3	Z3	X4	Y4	Z4	X5	Y5	Z5	X6	Y6	Z6	X7	Y7	Z7	X8	Y8	Z8	X9	Y9	Z9	X10	Y10	Z10	X11	Y11	Z11	X12	Y12	Z12	X13	Y13	Z13	X14	Y14	Z14	X15	Y15	Z15	X16	Y16	Z16	X17	Y17	Z17	X18	Y18	Z18	X19	Y19	Z19	X20	Y20	Z20	X21	Y21	Z21	X22	Y22	Z22
37	1.2416107382550337	0.9007346630085143	-0.5778836413406397	0.0	0.8974756676513557	-0.5791843275953462	0.0	0.9476544913961704	-0.6634085481555386	0.0	0.8978400118974279	-0.7549343004628232	0.0	0.9347674006189521	-0.7760144953073873	0.0	0.9260987696041323	-0.7790448458849779	0.0	0.884302085667827	-0.766749270349238	0.0	0.9086501024413811	-0.576619805604879	0.0	0.9566902995678899	-0.6593578687550123	0.0	0.9088791415262399	-0.7451058888447017	0.0	0.9437653968940212	-0.7674590388702394	0.0	0.9385104671043836	-0.7630864602930082	0.0	0.8909726917992264	-0.7549835790207459	0.0	0.9212724678539255	-0.4539169817375947	0.0	0.9408361726918765	-0.39473408816696287	0.0	0.9470264955901923	-0.4213806608128233	0.0	0.9177681831583142	-0.4599080079664452	0.0	0.9601472276017238	-0.41787809354872674	0.0	0.990454885869471	-0.3702043376309744	0.0	0.9210325675728281	-0.4561679467101295	0.0	0.9594932579642674	-0.41373310200541646	0.0	0.9868242259064104	-0.3715985662855453	0.0
38	1.2751677852348993	0.9047739710206765	-0.5697156703342972	0.0	0.9032299423190581	-0.5706929196272067	0.0	0.9395635803621685	-0.6618252331027863	0.0	0.896326007116424	-0.7571840482972882	0.0	0.9330448259226897	-0.7776970462510975	0.0	0.9241754693537392	-0.7809778104965981	0.0	0.8843399836630842	-0.7697475630445704	0.0	0.9105181365052852	-0.5684471150702316	0.0	0.9459130202515661	-0.6588079217933362	0.0	0.9044175878723854	-0.7478293601964461	0.0	0.9407781050153912	-0.7690222047129802	0.0	0.9347858212805632	-0.7643348651106738	0.0	0.88794664550148	-0.7572723040937807	0.0	0.9215936297682578	-0.44237825735833913	0.0	0.936425519269822	-0.3822963683586194	0.0	0.9439619489796218	-0.408836494114248	0.0	0.9182467405366539	-0.44675850448812726	0.0	0.9554078526062626	-0.3987648696617231	0.0	0.978750183461928	-0.3480908814306344	0.0	0.9199297118087119	-0.4440663684975504	0.0	0.9524918423528724	-0.3988003695015234	0.0	0.9719803389829491	-0.35307241882291857	0.0
39	1.308724832214765	0.9083151603221569	-0.5644142354134852	0.0	0.9084789560711332	-0.5651546594459275	0.0	0.9312280413411441	-0.6612154259237104	0.0	0.8947663918937324	-0.758863065948347	0.0	0.9300959774854787	-0.7790374284675134	0.0	0.9209865226663182	-0.7824736601485576	0.0	0.8843309683301857	-0.7720295597085157	0.0	0.9116897747325079	-0.5629552288033325	0.0	0.9344217394654712	-0.6588466940803013	0.0	0.8995314950472981	-0.7503529969787264	0.0	0.9362808754442059	-0.7706419798030221	0.0	0.9296826190058368	-0.7659196552472121	0.0	0.8848154846751654	-0.7594064890189637	0.0	0.9221139790852747	-0.43461333120567414	0.0	0.9338089354666039	-0.37408111059665844	0.0	0.9419565863708885	-0.4006790855415111	0.0	0.9188761763413752	-0.43733558133804273	0.0	0.9506806585081684	-0.3836179079683253	0.0	0.9668061095439472	-0.3308945061907948	0.0	0.9189950058782232	-0.435613544282867	0.0	0.9458803231688052	-0.38784422126923324	0.0	0.9568277283354543	-0.3398410410472944	0.0
40	1.342281879194631	0.9111724980539301	-0.5617246146810159	0.0	0.9128140731804565	-0.5624005922051437	0.0	0.9233257369193005	-0.6614333130772647	0.0	0.8934099959347855	-0.7599659677190028	0.0	0.9268421443939695	-0.7798813049803887	0.0	0.9175205642001543	-0.7834177234873017	0.0	0.8843442344209334	-0.7735810455460986	0.0	0.9122982143658197	-0.5600392662244821	0.0	0.9237792796482048	-0.6592241121067949	0.0	0.8952833854695479	-0.7523012351352303	0.0	0.9314579625542009	-0.7719372977035911	0.0	0.9245884061171594	-0.7674090791462015	0.0	0.8824690217847666	-0.7611284713111359	0.0	0.9227676569204029	-0.43037774081330943	0.0	0.933472226485385	-0.36941241034233063	0.0	0.9413970901979307	-0.39655224763744723	0.0	0.9196172571592427	-0.43166164413747166	0.0	0.946178826735409	-0.3729767974990331	0.0	0.9555257519453657	-0.31896687182109845	0.0	0.9183721501154921	-0.43070324205209504	0.0	0.940294708234522	-0.3808075004753045	0.0	0.9428782444026667	-0.3319138385866166	0.0
41	1.3758389261744965	0.9132633357188477	-0.5613398269906549	0.0	0.9160401410576362	-0.5621544830113508	0.0	0.9165550960460124	-0.6625800435370958	0.0	0.8923449029769066	-0.7609397203819855	0.0	0.9239801056816025	-0.7805661477450785	0.0	0.9145578735701347	-0.7841834904487764	0.0	0.8843415479229695	-0.7748484734169117	0.0	0.9124665497443217	-0.5595179241270504	0.0	0.9151352367101669	-0.6601743593206109	0.0	0.8921452806675373	-0.7539520698760879	0.0	0.927125586766332	-0.7731635314427252	0.0	0.9203673889386412	-0.7690008693146191	0.0	0.8811283068146203	-0.7627882583426149	0.0	0.9234974666705372	-0.42926232128527264	0.0	0.934980773090303	-0.3675309865678961	0.0	0.9421458471991727	-0.3957762689727513	0.0	0.9203784803248252	-0.42957193105811664	0.0	0.9421690975851619	-0.36692884027748945	0.0	0.9456949555623914	-0.31210774670856983	0.0	0.9180894411289371	-0.4290704288172785	0.0	0.9361279779762599	-0.3774374145962986	0.0	0.9315089292907514	-0.3285823820434771	0.0
42	1.4093959731543624	0.9146039574548194	-0.5629816816591809	0.0	0.918166141423021	-0.5640693788449836	0.0	0.9114452682169585	-0.6647932443458862	0.0	0.8915531984438879	-0.762337925166143	0.0	0.9217234241285421	-0.7816406871580555	0.0	0.9123726500256671	-0.7853428014606453	0.0	0.8842672054876393	-0.7764154364898502	0.0	0.9122987618002971	-0.5611267838128229	0.0	0.9089855077799961	-0.6620626708870124	0.0	0.890076573511597	-0.7558766358792661	0.0	0.9235723076935066	-0.7749246152939058	0.0	0.9172410529278769	-0.7712454792620227	0.0	0.8805130258566439	-0.7649152196253816	0.0	0.9241597294563128	-0.4308185035541434	0.0	0.9370307989240421	-0.36793556731577426	0.0	0.9434767493097925	-0.3976242790567662	0.0	0.9209922802188972	-0.43072193371387024	0.0	0.9388387260751777	-0.36514772680062346	0.0	0.9378107212774083	-0.3097839415130021	0.0	0.9180006543039891	-0.43035511078607736	0.0	0.9333724114204708	-0.3772782385956613	0.0	0.9236082656549233	-0.328745828640336	0.0
43	1.4429530201342282	0.9152959852876534	-0.5663767030371919	0.0	0.9193476991797818	-0.5677440538134165	0.0	0.9081334710710736	-0.6681020000001879	0.0	0.8909478401476897	-0.7645668494881807	0.0	0.9198758206792917	-0.7835472819705759	0.0	0.9107831273546053	-0.7873383256169877	0.0	0.8840932943601514	-0.7787382407986863	0.0	0.9119137745886228	-0.5645339172020356	0.0	0.9052265598512648	-0.6650798249429213	0.0	0.8887973742918859	-0.7585320471472768	0.0	0.9207410317426602	-0.7777025881793691	0.0	0.9150188924170864	-0.774545137640099	0.0	0.8802334938563211	-0.7677914144503666	0.0	0.9245416451284106	-0.4345664464816523	0.0	0.9382741805567456	-0.370358157558145	0.0	0.9445214112080688	-0.40145993364774385	0.0	0.921279474207949	-0.4345526167583284	0.0	0.9362302095823403	-0.36694917982177117	0.0	0.9320630607772401	-0.3112081024666558	0.0	0.9178393128896133	-0.4340809587956148	0.0	0.9317038469112577	-0.37966238892468007	0.0	0.9192751097900734	-0.3312412774583694	0.0
44	1.476510067114094	0.9155132514228879	-0.5711699900489511	0.0	0.9198277817095631	-0.5727156395803361	0.0	0.9063595599550528	-0.6723597265744476	0.0	0.8904162019589634	-0.7677668863201321	0.0	0.9181408533962577	-0.7864527901852817	0.0	0.9094618922999305	-0.7903203936869782	0.0	0.8838228645212328	-0.7820001322272547	0.0	0.911446841198046	-0.5693213441597083	0.0	0.9033920503731179	-0.6691214901598195	0.0	0.8880166745505402	-0.7620426046732515	0.0	0.9185068364306287	-0.7815601900848818	0.0	0.9134049295165916	-0.7788529747658184	0.0	0.8800341874334767	-0.7713325406608956	0.0	0.9244436379853344	-0.43993331294967375	0.0	0.9379697163896317	-0.3745489077775592	0.0	0.9447031115271277	-0.40673612447403584	0.0	0.9210968244560567	-0.440308604759869	0.0	0.9342487184473451	-0.3713644166483548	0.0	0.9283683780182874	-0.3153943712267437	0.0	0.9173591169256379	-0.4396419145163628	0.0	0.9307054015053632	-0.38376989594438116	0.0	0.9178380321089428	-0.3350762116756361	0.0
45	1.5100671140939597	0.9154440212634615	-0.5768716141814205	0.0	0.9198620964221514	-0.5784427481624942	0.0	0.9056550325294042	-0.6772495684652899	0.0	0.8898898004341889	-0.7718166367792597	0.0	0.9163597003230252	-0.7902239496228725	0.0	0.9081916037297559	-0.7941645946802954	0.0	0.8834948682030535	-0.7860903606496538	0.0	0.9110130733663283	-0.574954606143827	0.0	0.9028820199076221	-0.6738423237203226	0.0	0.8875218225672494	-0.7662280203970824	0.0	0.9168033229991577	-0.7861849198883956	0.0	0.9121682140348847	-0.7837704618890218	0.0	0.8798218175367348	-0.7752847831579049	0.0	0.923763553943203	-0.44623934417407474	0.0	0.9360731324767213	-0.38006608659704894	0.0	0.9438647092246534	-0.412897750138722	0.0	0.920376197047935	-0.44710269939974334	0.0	0.9327219854613542	-0.37731553457675404	0.0	0.9264060102592927	-0.32128581348341545	0.0	0.9164628603922242	-0.4462954240588447	0.0	0.9300031011775802	-0.3887990591880852	0.0	0.918237449507804	-0.339553263691259	0.0
46	1.5436241610738255	0.91523540371807	-0.5828950595382942	0.0	0.9196473911056015	-0.5843352095899859	0.0	0.905528985203398	-0.6823753075370638	0.0	0.8893824519967211	-0.7763794820659654	0.0	0.9145586725254883	-0.7944763206257677	0.0	0.9069275104704883	-0.7985426242394582	0.0	0.8831712156869372	-0.7906493386582151	0.0	0.9106662674936352	-0.5808272765950484	0.0	0.9030768520040795	-0.6788466955775333	0.0	0.8871780742404038	-0.7707765366904011	0.0	0.9155964709348531	-0.7911346355827061	0.0	0.9111786863392314	-0.7888574292839386	0.0	0.8795957768922533	-0.7795072890510135	0.0	0.922554919929135	-0.4527554207400033	0.0	0.9330289461600559	-0.38621585426640503	0.0	0.9422112350270528	-0.4192734856183709	0.0	0.9191776540994417	-0.4540187140550242	0.0	0.9314824110624599	-0.3838041620147624	0.0	0.9257110394147948	-0.3278828863879899	0.0	0.9152172561514508	-0.4531915280334869	0.0	0.929309845386111	-0.3941383915328101	0.0	0.919465228641249	-0.3442434940564246	0.0
